<svg width="100px" height="127px" viewBox="0 0 100 127" version="1.1" xmlns="http://www.w3.org/2000/svg" xmlns:xlink="http://www.w3.org/1999/xlink">
    <g id="general-flow" stroke="none" stroke-width="1" fill="none" fill-rule="evenodd">
        <g id="splash" transform="translate(-138.000000, -269.000000)" fill="#FFFFFF">
            <g id="Zappar_logo_2018-stacked" transform="translate(138.000000, 269.000000)">
                <g id="Group" transform="translate(0.961538, 0.000000)">
                    <path d="M83.1157394,0 L14.9191087,0 C6.749538,0 0.122718873,6.5796331 0.122718873,14.6910326 L0.122718873,82.4020717 C0.122718873,90.5134713 6.749538,97.0756979 14.9015774,97.0756979 L83.0982081,97.0756979 C91.2677788,97.0756979 97.8770666,90.4960648 97.8770666,82.4020717 L97.8770666,14.6910326 C97.8945979,6.5796331 91.28531,0 83.1157394,0 Z M67.3901924,83.0287035 L71.1418836,94.2036359 L52.8567716,86.8407131 C51.1562387,87.0321839 50.6303006,86.9625582 48.9998927,86.9625582 C27.6292776,86.9625582 10.3259166,69.7649986 10.3259166,48.5639586 C10.3259166,32.8111333 22.3523661,18.3986037 36.3423176,12.393383 L46.457859,2.43690115 L55.7494307,11.1923389 C73.9118239,14.4821554 87.6914002,29.7476005 87.6914002,48.5291458 C87.6914002,64.3864097 80.8542059,77.2149536 67.3901924,83.0287035 Z" id="Shape"></path>
                    <polygon id="Shape" points="25.1223064 32.3237531 46.5455153 8.68581195 77.0674521 44.6997297 51.0861136 66.8233108 64.8130961 87.9547251 25.7709633 66.5274014 44.7047322 46.3533412"></polygon>
                </g>
                <g id="Group" transform="translate(0.000000, 104.807692)" fill-rule="nonzero">
                    <polygon id="Shape" points="0 22.0100733 10.1940035 5.30067155 1.74603175 5.30067155 1.74603175 0.579212454 19.5767196 0.579212454 9.4356261 17.2886142 24.2151675 17.2886142"></polygon>
                    <path d="M34.4091711,15.3052503 L29.2063492,15.3052503 L29.2063492,13.5500611 L29.1534392,13.5500611 C28.2363316,15.0068681 26.4373898,15.6562882 24.7266314,15.6562882 C20.3880071,15.6562882 17.3368607,12.0405983 17.3368607,7.86324786 C17.3368607,3.68589744 20.335097,0.105311355 24.6737213,0.105311355 C26.366843,0.105311355 28.1305115,0.737179487 29.2063492,2.00091575 L29.2063492,0.579212454 L34.4091711,0.579212454 L34.4091711,15.3052503 Z M22.6984127,7.89835165 C22.6984127,9.74130037 23.9329806,11.1630037 26.031746,11.1630037 C28.1481481,11.1630037 29.3650794,9.74130037 29.3650794,7.89835165 C29.3650794,6.10805861 28.1305115,4.59859585 26.031746,4.59859585 C23.9153439,4.59859585 22.6984127,6.10805861 22.6984127,7.89835165 Z" id="Shape"></path>
                    <path d="M88.0776014,15.3052503 L82.8747795,15.3052503 L82.8747795,13.6904762 L82.8218695,13.6904762 C81.9047619,15.1472833 80.1058201,15.7967033 78.3950617,15.7967033 C74.0564374,15.7967033 71.005291,12.1810134 71.005291,8.003663 C71.005291,3.82631258 74.0035273,0.122863248 78.3421517,0.122863248 C80.0352734,0.122863248 81.7989418,0.877594628 82.8747795,2.15888278 L82.8747795,0.614316239 L88.0776014,0.614316239 L88.0776014,15.3052503 Z M76.366843,8.05631868 C76.366843,9.8992674 77.6014109,11.3209707 79.7001764,11.3209707 C81.8165785,11.3209707 83.0335097,9.8992674 83.0335097,8.05631868 C83.0335097,6.26602564 81.7989418,4.75656288 79.7001764,4.75656288 C77.5837743,4.75656288 76.366843,6.26602564 76.366843,8.05631868 Z" id="Shape"></path>
                    <path d="M94.1798942,3.10668498 L94.2328042,3.10668498 C95.2380952,1.31639194 96.9488536,0.526556777 98.9770723,0.526556777 L99.9823633,0.526556777 L99.9823633,5.49374237 C99.2768959,5.09004884 98.5890653,5.00228938 97.7777778,5.00228938 C94.8853616,5.00228938 94.1798942,6.91544567 94.1798942,9.40781441 L94.1798942,15.2876984 L88.9770723,15.2876984 L88.9770723,0.579212454 L94.1798942,0.579212454 L94.1798942,3.10668498 Z" id="Shape"></path>
                    <path d="M58.3068783,13.7782357 C59.4179894,15.0595238 61.1640212,15.6562882 62.8571429,15.6562882 C67.1957672,15.6562882 70.1940035,12.1283578 70.1940035,7.93345543 C70.1940035,3.75610501 67.1604938,0.122863248 62.8042328,0.122863248 C61.0934744,0.122863248 59.3121693,0.807387057 58.377425,2.24664225 L58.324515,2.24664225 L58.324515,0.596764347 L53.1216931,0.596764347 L53.1216931,22.045177 L58.324515,20.6410256 L58.324515,13.7782357 L58.3068783,13.7782357 Z M61.4814815,4.59859585 C63.5978836,4.59859585 64.8148148,6.10805861 64.8148148,7.89835165 C64.8148148,9.74130037 63.5802469,11.1630037 61.4814815,11.1630037 C59.3650794,11.1630037 58.1481481,9.74130037 58.1481481,7.89835165 C58.1305115,6.10805861 59.3650794,4.59859585 61.4814815,4.59859585 Z" id="Shape"></path>
                    <path d="M40.4409171,13.7782357 C41.5520282,15.0595238 43.29806,15.6562882 44.9911817,15.6562882 C49.329806,15.6562882 52.3280423,12.1283578 52.3280423,7.93345543 C52.3280423,3.75610501 49.2945326,0.122863248 44.9382716,0.122863248 C43.2275132,0.122863248 41.4462081,0.807387057 40.5114638,2.24664225 L40.4585538,2.24664225 L40.4585538,0.596764347 L35.2557319,0.596764347 L35.2557319,22.045177 L40.4585538,20.6410256 L40.4585538,13.7782357 L40.4409171,13.7782357 Z M43.5978836,4.59859585 C45.7142857,4.59859585 46.9312169,6.10805861 46.9312169,7.89835165 C46.9312169,9.74130037 45.696649,11.1630037 43.5978836,11.1630037 C41.4814815,11.1630037 40.2645503,9.74130037 40.2645503,7.89835165 C40.2645503,6.10805861 41.4814815,4.59859585 43.5978836,4.59859585 Z" id="Shape"></path>
                </g>
            </g>
        </g>
    </g>
</svg>